<?xml version="1.0" ?>

<!-- Uploaded to: SVG Repo, www.svgrepo.com, Generator: SVG Repo Mixer Tools -->
<svg width="800px" height="800px" viewBox="0 0 281.25 281.25" id="svg2" version="1.1" xml:space="preserve" xmlns="http://www.w3.org/2000/svg" xmlns:cc="http://creativecommons.org/ns#" xmlns:dc="http://purl.org/dc/elements/1.1/" xmlns:rdf="http://www.w3.org/1999/02/22-rdf-syntax-ns#" xmlns:svg="http://www.w3.org/2000/svg">

<defs id="defs4"/>

<g id="layer1" transform="translate(6402.3564,-3994.3706)">

<g id="g27095" transform="translate(-2268.9074,-371.65226)">

<path d="m -4096.9523,4448.6094 a 4.6875,4.6875 0 0 0 -1.0511,0.282 4.6875,4.6875 0 0 0 -1.2414,0.3314 4.6875,4.6875 0 0 0 -0.813,0.7764 4.6875,4.6875 0 0 0 -0.9155,0.9155 4.6875,4.6875 0 0 0 -0.3205,1.0913 4.6875,4.6875 0 0 0 -0.346,1.1755 c 0,0.039 9e-4,0.077 0,0.1154 -0.6485,27.7229 9.7043,55.4051 28.3905,75.8954 18.7119,20.5187 45.3711,33.3805 73.0773,35.2551 30.1669,2.041 60.8057,-9.0798 82.641,-29.9945 21.8073,-20.8875 34.2282,-50.9668 33.523,-81.1542 0,-6e-4 0,0 0,0 -9e-4,-0.037 9e-4,-0.074 0,-0.1117 a 4.6875,4.6875 0 0 0 -0.017,-0.059 4.6875,4.6875 0 0 0 -0.6464,-2.1917 4.6875,4.6875 0 0 0 -0.059,-0.1117 4.6875,4.6875 0 0 0 -1.659,-1.5784 4.6875,4.6875 0 0 0 -0.152,-0.082 4.6875,4.6875 0 0 0 -2.1551,-0.5493 h -0.1135 -30.1337 -151.7798 -26.1182 z m 4.6875,9.375 h 16.7889 c 0.692,18.8606 8.1166,37.3296 20.8026,51.3446 13.7618,15.2035 33.3471,24.7844 53.7964,26.3196 22.4766,1.6875 45.3279,-6.4634 61.6626,-21.9947 15.1728,-14.4265 24.253,-34.7872 25.0268,-55.6695 h 20.7935 c -0.6232,25.968 -11.8669,51.7327 -30.6244,69.6991 -19.8583,19.0209 -48.0845,29.2671 -75.52,27.4109 -25.2155,-1.706 -49.7561,-13.5452 -66.7859,-32.2193 -16.0029,-17.5479 -25.3806,-41.1437 -25.9405,-64.8907 z m 26.173,0 h 142.5147 c -0.787,18.2576 -8.8629,36.2913 -22.099,48.8763 -14.3409,13.6357 -34.7645,20.9218 -54.4977,19.4403 -17.9728,-1.3494 -35.4536,-9.9031 -47.5488,-23.2653 -11.0723,-12.2323 -17.6687,-28.5556 -18.3692,-45.0513 z" id="path7220" style="color:#000000;fill:#333333;fill-opacity:1;stroke-linecap:round;stroke-linejoin:round;-inkscape-stroke:none"/>

<path d="m -4024.1478,4476.6593 a 4.6875,4.6875 0 0 0 -4.6875,4.6875 4.6875,4.6875 0 0 0 4.6875,4.6875 h 10.4151 a 4.6875,4.6875 0 0 0 4.6875,-4.6875 4.6875,4.6875 0 0 0 -4.6875,-4.6875 z m 52.2327,0 a 4.6875,4.6875 0 0 0 -4.6875,4.6875 4.6875,4.6875 0 0 0 4.6875,4.6875 h 10.415 a 4.6875,4.6875 0 0 0 4.6875,-4.6875 4.6875,4.6875 0 0 0 -4.6875,-4.6875 z m -26.1182,15.5786 a 4.6875,4.6875 0 0 0 -4.6875,4.6875 4.6875,4.6875 0 0 0 4.6875,4.6875 h 10.4187 a 4.6875,4.6875 0 0 0 4.6875,-4.6875 4.6875,4.6875 0 0 0 -4.6875,-4.6875 z" id="path7232" style="color:#000000;fill:#ff4d4c;fill-opacity:1;stroke-linecap:round;stroke-linejoin:round;-inkscape-stroke:none"/>

</g>

</g>

</svg>