<?xml version="1.0" ?>

<!-- Uploaded to: SVG Repo, www.svgrepo.com, Generator: SVG Repo Mixer Tools -->
<svg width="800px" height="800px" viewBox="0 0 281.25 281.25" id="svg2" version="1.1" xml:space="preserve" xmlns="http://www.w3.org/2000/svg" xmlns:cc="http://creativecommons.org/ns#" xmlns:dc="http://purl.org/dc/elements/1.1/" xmlns:rdf="http://www.w3.org/1999/02/22-rdf-syntax-ns#" xmlns:svg="http://www.w3.org/2000/svg">

<defs id="defs4"/>

<g id="layer1" transform="translate(6693.6064,-3697.2496)">

<g id="g24456" transform="translate(-2272.9003,-368.21341)">

<path d="m -4273.466,4142.2959 c -0.6688,-0.012 -1.341,0 -2.016,0.024 -9.3298,0.3887 -17.807,4.6303 -24.5636,10.2649 -6.7163,5.6008 -11.816,12.4805 -16.3733,19.2682 -12.1853,18.1491 -22.251,38.5979 -25.0671,60.8807 -1.4092,11.1495 -0.9528,22.6413 1.9299,33.6603 2.8855,11.03 8.2213,21.5175 15.9814,30.0733 9.7722,10.7741 23.1414,18.0883 37.4927,20.4876 14.3521,2.3995 29.3881,-0.1698 42.1198,-7.2253 11.0941,-6.148 20.1739,-15.4998 26.3836,-26.424 6.2036,-10.9134 9.5214,-23.275 10.1184,-35.6945 1.2314,-25.6186 -8.8541,-49.9927 -21.4856,-71.2757 -4.8226,-8.1257 -10.3168,-16.4068 -17.9699,-23.0163 -7.2318,-6.2459 -16.5183,-10.8436 -26.5503,-11.023 z m -1.626,9.3897 c 7.7296,-0.322 15.7275,3.2684 22.0496,8.7286 6.3831,5.5126 11.3915,12.8844 16.0345,20.7074 12.1381,20.4516 21.2824,43.1838 20.1837,66.0407 -0.5311,11.0491 -3.4968,21.9957 -8.9044,31.5087 -5.4015,9.5023 -13.3212,17.6163 -22.7783,22.8571 -10.8257,5.9993 -23.8158,8.2233 -36.0278,6.1816 -12.2129,-2.0418 -23.7746,-8.3663 -32.0966,-17.5415 -6.6312,-7.3112 -11.3213,-16.4534 -13.8574,-26.1474 -2.5389,-9.705 -2.9743,-20.0071 -1.6974,-30.1099 2.5556,-20.2217 11.855,-39.4103 23.551,-56.8304 4.3768,-6.5189 9.0006,-12.634 14.5935,-17.298 5.5523,-4.6302 12.2658,-7.8184 18.9496,-8.0969 z" id="path4620" style="color:#000000;fill:#2aff2a;fill-opacity:1;stroke-linecap:round;stroke-linejoin:round;-inkscape-stroke:none"/>

<path d="m -4276.3792,4196.4036 c -1.718,0.016 -3.4356,0.1568 -5.1398,0.4211 -6.3522,0.9852 -12.3107,3.6681 -17.3181,7.5476 -5.0006,3.8742 -8.9917,8.8771 -11.8067,14.4361 -5.6311,11.1201 -6.3624,24.0163 -3.6053,35.8008 2.1046,8.9954 6.3145,17.7852 13.1671,24.5251 6.9033,6.7897 16.422,11.1919 26.4514,10.816 5.4042,-0.2029 10.635,-1.7784 15.2619,-4.3597 4.6199,-2.5774 8.5869,-6.1154 11.7755,-10.1971 6.3729,-8.1584 9.4619,-18.2021 10.2905,-28.0884 0.7682,-9.1653 -0.3422,-18.7214 -4.2718,-27.3889 -3.9499,-8.7119 -10.7796,-16.3104 -19.7809,-20.365 -4.7215,-2.1268 -9.8697,-3.1943 -15.0238,-3.1476 z m 0.081,9.3823 c 3.8076,-0.03 7.6397,0.7581 11.0907,2.3126 6.5811,2.9644 11.9882,8.8354 15.0953,15.6885 3.1271,6.8976 4.1272,14.8693 3.468,22.7344 -0.7095,8.4646 -3.3753,16.7466 -8.3387,23.1006 -2.4797,3.1743 -5.5329,5.8716 -8.9538,7.7801 -3.4136,1.9045 -7.2486,3.0401 -11.0449,3.1824 -7.0027,0.2625 -14.2782,-2.9718 -19.5264,-8.1336 -5.299,-5.2117 -8.8346,-12.3763 -10.6128,-19.9768 -2.3233,-9.9304 -1.6041,-20.653 2.84,-29.4287 2.2225,-4.389 5.3722,-8.306 9.1864,-11.261 3.8074,-2.9499 8.3464,-4.9726 13.0133,-5.6964 1.2482,-0.1936 2.5137,-0.2923 3.7829,-0.3021 z" id="path4624" style="color:#000000;fill:#f0b210;fill-opacity:1;stroke-linecap:round;stroke-linejoin:round;-inkscape-stroke:none"/>

<path d="m -4305.9398,4096.9773 c -5.8348,-0.052 -11.6815,0.8693 -17.2339,2.7814 a 4.6875,4.6875 0 0 0 -0.487,0.26 4.6875,4.6875 0 0 0 -0.6757,0.3589 4.6875,4.6875 0 0 0 -0.5145,0.4669 4.6875,4.6875 0 0 0 -0.531,0.5475 4.6875,4.6875 0 0 0 -0.3534,0.6152 4.6875,4.6875 0 0 0 -0.3278,0.6738 4.6875,4.6875 0 0 0 -0.1464,0.6977 4.6875,4.6875 0 0 0 -0.1209,0.5804 c -0.3817,7.772 1.998,15.537 6.6669,21.7621 4.6689,6.2251 11.4548,10.6817 19.0228,12.4915 6.7969,1.6253 14.0112,1.0705 20.4803,-1.5729 0.2391,-0.098 0.474,-0.2027 0.7105,-0.3058 -0.3618,2.1545 -0.5528,4.3358 -0.6061,6.5241 1.5018,-0.2669 3.021,-0.4737 4.574,-0.5384 0.675,-0.028 1.3472,-0.036 2.016,-0.024 0.9389,0.017 1.8639,0.1095 2.7887,0.2014 0.2769,-6.7069 2.4188,-13.3883 6.1487,-18.9422 0,0 0,-0.01 0.01,-0.011 v 0 c 5.6015,-8.3326 14.9846,-14.2521 24.917,-15.7196 a 4.6875,4.6875 0 0 0 3.9514,-5.3229 4.6875,4.6875 0 0 0 -5.321,-3.9514 c -10.6053,1.5672 -20.4327,6.9601 -27.5373,14.9139 -4.4288,-4.7664 -9.7462,-8.6904 -15.6317,-11.4954 -6.0585,-2.8874 -12.6436,-4.5322 -19.3011,-4.909 -0.8322,-0.047 -1.664,-0.073 -2.4976,-0.081 z m -0.088,9.3952 c 6.1655,0.059 12.3292,1.4241 17.8546,4.0576 5.2851,2.5188 10.0515,6.1814 13.8776,10.6256 -2.5234,3.0087 -5.7971,5.4298 -9.4116,6.9067 -4.6123,1.8846 -9.9051,2.2921 -14.751,1.1334 -5.383,-1.2872 -10.3846,-4.5719 -13.7054,-8.9996 -2.6718,-3.5623 -4.3272,-7.9613 -4.7315,-12.4237 3.5361,-0.8959 7.2003,-1.3351 10.8673,-1.3 z" id="path4628" style="color:#000000;fill:#333333;fill-opacity:1;stroke-linecap:round;stroke-linejoin:round;-inkscape-stroke:none"/>

</g>

</g>

</svg>