<?xml version="1.0" ?>

<!-- Uploaded to: SVG Repo, www.svgrepo.com, Generator: SVG Repo Mixer Tools -->
<svg width="800px" height="800px" viewBox="0 0 281.25 281.25" id="svg2" version="1.1" xml:space="preserve" xmlns="http://www.w3.org/2000/svg" xmlns:cc="http://creativecommons.org/ns#" xmlns:dc="http://purl.org/dc/elements/1.1/" xmlns:rdf="http://www.w3.org/1999/02/22-rdf-syntax-ns#" xmlns:svg="http://www.w3.org/2000/svg">

<defs id="defs4"/>

<g id="layer1" transform="translate(6111.1064,-3399.5356)">

<path d="m -5887.6953,3430.4266 v 0 a 4.6875,4.6875 0 0 0 -0.099,0.02 4.6875,4.6875 0 0 0 -0.1776,-0.011 4.6875,4.6875 0 0 0 -1.3916,0.3369 4.6875,4.6875 0 0 0 -0.315,0.1557 4.6875,4.6875 0 0 0 -1.1279,0.7672 4.6875,4.6875 0 0 0 -0.1904,0.13 l -19.9073,20.2496 v -16.961 a 4.6879687,4.6879687 0 0 0 -4.6875,-4.6875 h -29.5733 a 4.6879687,4.6879687 0 0 0 -4.6875,4.6875 v 56.5777 l -76.6461,77.9608 c -5.9741,-2.4457 -12.4709,-3.4907 -18.8947,-3.0304 -2.5286,0.1812 -5.0466,0.5957 -7.5128,1.2415 -9.865,2.5833 -18.5853,8.8246 -24.2121,17.3291 -5.6268,8.5047 -7.9623,18.973 -6.4819,29.0625 1.4803,10.0895 6.7224,19.4473 14.5551,25.9772 6.7461,5.624 15.217,9.0069 23.9813,9.5801 8.7641,0.5733 17.6037,-1.6784 25.025,-6.3758 7.4212,-4.6973 13.2381,-11.7207 16.4703,-19.8871 2.8886,-7.2981 3.6416,-15.3441 2.2028,-23.042 l 48.0652,-46.2432 a 4.6875,4.6875 0 0 0 0.1099,-0.1191 4.6875,4.6875 0 0 0 0.042,-0.035 c 4.2103,-4.4416 9.3044,-8.074 14.8755,-10.6073 6.4681,-2.9411 13.6346,-4.4143 20.7385,-4.2664 a 4.6875,4.6875 0 0 0 0.053,-0.01 4.6875,4.6875 0 0 0 0.044,0.01 h 34.4715 a 4.6875,4.6875 0 0 0 1.1316,-0.1502 4.6875,4.6875 0 0 0 0.3552,-0.1245 4.6875,4.6875 0 0 0 0.7068,-0.2911 4.6875,4.6875 0 0 0 0.3808,-0.2399 4.6875,4.6875 0 0 0 0.5585,-0.4284 4.6875,4.6875 0 0 0 0.3204,-0.3205 4.6875,4.6875 0 0 0 0.4285,-0.5584 4.6875,4.6875 0 0 0 0.2399,-0.3809 4.6875,4.6875 0 0 0 0.2984,-0.7233 4.6875,4.6875 0 0 0 0.1154,-0.3314 4.6875,4.6875 0 0 0 0.152,-1.1389 v -29.355 a 4.6875,4.6875 0 0 0 0,-0.068 4.6875,4.6875 0 0 0 0,-0.024 4.6875,4.6875 0 0 0 0,-0.015 4.6875,4.6875 0 0 0 -1.9977,-3.7317 4.6875,4.6875 0 0 0 -0.016,-0.011 4.6875,4.6875 0 0 0 -1.2945,-0.6299 4.6875,4.6875 0 0 0 -0.037,-0.01 4.6875,4.6875 0 0 0 -1.3385,-0.1996 4.6875,4.6875 0 0 0 -0.059,0.01 4.6875,4.6875 0 0 0 -0.035,-0.01 c -5.9563,0.1183 -11.9154,0.1564 -17.8729,0.1319 l 42.5042,-39.3567 a 4.6875,4.6875 0 0 0 0.3058,-0.3186 4.6875,4.6875 0 0 0 0.042,-0.039 4.6875,4.6875 0 0 0 0.044,-0.053 4.6875,4.6875 0 0 0 0.022,-0.029 4.6875,4.6875 0 0 0 0.282,-0.3772 4.6875,4.6875 0 0 0 0.062,-0.095 4.6875,4.6875 0 0 0 0.2197,-0.379 4.6875,4.6875 0 0 0 0.048,-0.086 4.6875,4.6875 0 0 0 0.1959,-0.4669 4.6875,4.6875 0 0 0 0.029,-0.088 4.6875,4.6875 0 0 0 0.1227,-0.4211 4.6875,4.6875 0 0 0 0.024,-0.1026 4.6875,4.6875 0 0 0 0.082,-0.5072 4.6875,4.6875 0 0 0 0,-0.071 4.6875,4.6875 0 0 0 0.017,-0.4376 4.6875,4.6875 0 0 0 0,-0.1447 4.6875,4.6875 0 0 0 -0.033,-0.4101 4.6875,4.6875 0 0 0 -0.013,-0.108 4.6875,4.6875 0 0 0 -0.1044,-0.4999 4.6875,4.6875 0 0 0 -0.026,-0.088 4.6875,4.6875 0 0 0 -0.1374,-0.4083 4.6875,4.6875 0 0 0 -0.042,-0.1099 4.6875,4.6875 0 0 0 -0.2234,-0.4688 4.6875,4.6875 0 0 0 -0.01,-0.013 4.6875,4.6875 0 0 0 -0.2692,-0.4266 4.6875,4.6875 0 0 0 -0.066,-0.088 4.6875,4.6875 0 0 0 -0.2857,-0.3479 4.6875,4.6875 0 0 0 -0.033,-0.04 4.6875,4.6875 0 0 0 -0.01,-0.01 4.6875,4.6875 0 0 0 -0.3479,-0.3406 l -26.0431,-22.7289 a 4.6875,4.6875 0 0 0 -1.2231,-0.7452 4.6875,4.6875 0 0 0 -0.3259,-0.1099 4.6875,4.6875 0 0 0 -1.3514,-0.2581 4.6875,4.6875 0 0 0 -0.2233,-0.042 z m -52.782,9.3769 h 20.1983 v 21.8097 l -20.1983,20.5444 z m 53.0694,1.7468 18.7866,16.3971 -45.932,42.5262 c -5.0531,-0.1083 -10.2057,-0.2314 -15.4834,0.035 -5.9466,0.3039 -11.8627,1.1068 -17.6751,2.3822 z m -33.9038,68.1775 c 2.7866,0.022 5.6098,0.095 8.4686,0.1538 8.3958,0.1667 16.7934,0.1849 25.1899,0.071 v 19.9109 h -29.784 a 4.6875,4.6875 0 0 0 -0.01,0 c -8.4897,-0.1607 -16.9783,1.5919 -24.7083,5.1068 -6.6327,3.016 -12.6591,7.3021 -17.6861,12.5757 l -28.7952,27.7039 -14.773,-15.7068 41.8946,-42.6141 c 10.1607,-4.0972 21.0148,-6.5015 31.9555,-7.0606 2.7097,-0.1385 5.4605,-0.1652 8.2471,-0.1428 z m -88.6761,56.5082 14.5953,15.5145 -14.3628,13.819 a 4.6875,4.6875 0 0 0 -0.564,0.7452 4.6875,4.6875 0 0 0 -0.2545,0.3387 4.6875,4.6875 0 0 0 -0.5475,1.5674 4.6875,4.6875 0 0 0 -0.01,0.39 4.6875,4.6875 0 0 0 0.071,1.2836 4.6875,4.6875 0 0 0 0.013,0.2271 c 1.6886,6.5383 1.2455,13.6996 -1.2397,19.9786 -2.4852,6.2789 -7.0638,11.8058 -12.7697,15.4175 -5.7059,3.6116 -12.658,5.3846 -19.3964,4.9438 -6.7386,-0.4407 -13.4038,-3.1045 -18.5907,-7.4286 -6.0062,-5.0072 -10.1479,-12.3993 -11.283,-20.1361 -1.1352,-7.7367 0.7079,-16.0078 5.0226,-22.5293 4.3148,-6.5215 11.2056,-11.4535 18.7702,-13.4344 7.5644,-1.981 15.9877,-1.0593 22.9449,2.5104 a 4.6875,4.6875 0 0 0 0.6427,0.1831 4.6875,4.6875 0 0 0 0.6335,0.1812 4.6875,4.6875 0 0 0 1.8165,-0.016 4.6875,4.6875 0 0 0 0.368,-0.042 4.6875,4.6875 0 0 0 1.8713,-1.1004 4.6875,4.6875 0 0 0 0.152,-0.09 z" id="path3124" style="color:#000000;fill:#333333;fill-opacity:1;stroke-linecap:round;stroke-linejoin:round;-inkscape-stroke:none"/>

</g>

</svg>