<?xml version="1.0" ?>

<!-- Uploaded to: SVG Repo, www.svgrepo.com, Generator: SVG Repo Mixer Tools -->
<svg width="800px" height="800px" viewBox="0 0 281.25 281.25" id="svg2" version="1.1" xml:space="preserve" xmlns="http://www.w3.org/2000/svg" xmlns:cc="http://creativecommons.org/ns#" xmlns:dc="http://purl.org/dc/elements/1.1/" xmlns:rdf="http://www.w3.org/1999/02/22-rdf-syntax-ns#" xmlns:svg="http://www.w3.org/2000/svg">

<defs id="defs4"/>

<g id="layer1" transform="translate(7276.1064,-4296.9987)">

<path d="m -7121.7794,4331.6675 c -8.4295,0.052 -16.8546,0.9428 -25.1147,2.677 -22.0272,4.6245 -42.7116,15.2283 -59.3244,30.4138 -18.7664,17.1541 -32.3017,40.3555 -36.2896,65.6781 -3.2736,20.7864 0.033,42.4562 9.2797,61.3458 -3.2479,5.472 -4.7642,11.8852 -4.2645,18.2575 0.5764,7.3487 3.8076,14.3379 9.0326,19.5373 5.3422,5.3159 12.5426,8.5327 20.0665,8.9667 6.5375,0.3772 13.0707,-1.3637 18.5541,-4.8871 17.9351,8.1356 38.0016,11.3992 57.5922,9.3109 28.0163,-2.9864 54.3741,-16.9137 73.2806,-37.6648 15.3416,-16.8384 25.7926,-37.9979 29.8352,-60.4156 3.921,-21.744 1.7615,-44.4793 -6.1212,-65.1141 2.9951,-7.0116 3.5223,-14.9547 1.4209,-22.3096 -2.2985,-8.0443 -7.6301,-15.0308 -14.7839,-19.3689 -5.4121,-3.282 -11.7043,-4.9678 -18.0323,-4.8303 -5.556,0.1208 -11.0223,1.6458 -15.8367,4.3945 -12.6875,-4.0449 -25.9917,-6.0734 -39.2945,-5.9912 z m 0.057,9.3805 c 13.0164,-0.078 26.0545,1.9915 38.3679,6.1633 a 4.6875,4.6875 0 0 0 0.1355,0.01 4.6875,4.6875 0 0 0 2.049,0.1336 4.6875,4.6875 0 0 0 0.3497,-0.042 4.6875,4.6875 0 0 0 1.5729,-0.6409 c 3.7528,-2.505 8.2916,-3.9358 12.8027,-4.0338 4.5112,-0.098 9.1094,1.1321 12.9675,3.4717 5.0688,3.0738 9.0044,8.2308 10.633,13.9307 1.6285,5.6999 1.0117,12.1548 -1.6681,17.4426 a 4.6875,4.6875 0 0 0 -0.4505,1.4319 4.6875,4.6875 0 0 0 0,0.119 4.6875,4.6875 0 0 0 0.2509,2.0746 4.6875,4.6875 0 0 0 0.029,0.2417 c 7.8239,19.4701 10.0482,41.2229 6.3244,61.8732 -3.7238,20.6502 -13.4052,40.2557 -27.5372,55.7666 -17.3847,19.0807 -41.7787,31.933 -67.3443,34.6582 -18.7416,1.9977 -38.0886,-1.3777 -55.047,-9.6021 a 4.6875,4.6875 0 0 0 -0.2308,-0.044 4.6875,4.6875 0 0 0 -2.0965,-0.4029 4.6875,4.6875 0 0 0 -0.1996,0.038 4.6875,4.6875 0 0 0 -1.9318,0.6702 4.6875,4.6875 0 0 0 -0.2929,0.1648 4.6875,4.6875 0 0 0 -0.1978,0.1098 c -4.0642,3.2046 -9.452,4.8996 -14.6191,4.6015 -5.167,-0.2981 -10.3223,-2.6024 -13.9911,-6.2531 -3.5905,-3.573 -5.9028,-8.5732 -6.2988,-13.623 -0.3961,-5.0499 1.1082,-10.3508 4.0979,-14.4397 a 4.6875,4.6875 0 0 0 0.3131,-0.4981 4.6875,4.6875 0 0 0 0.046,-0.09 4.6875,4.6875 0 0 0 0.3186,-0.7489 4.6875,4.6875 0 0 0 0.015,-0.044 4.6875,4.6875 0 0 0 0.1685,-0.8221 4.6875,4.6875 0 0 0 0.015,-0.1099 4.6875,4.6875 0 0 0 0.01,-0.8221 4.6875,4.6875 0 0 0 -0.011,-0.1172 4.6875,4.6875 0 0 0 -0.1574,-0.8185 4.6875,4.6875 0 0 0 -0.022,-0.068 4.6875,4.6875 0 0 0 -0.3131,-0.7727 4.6875,4.6875 0 0 0 -0.013,-0.033 c -0.01,-0.01 -0.011,-0.021 -0.016,-0.031 -9.2334,-17.6262 -12.6462,-38.3428 -9.5508,-57.9987 3.6159,-22.9603 16.044,-44.3929 33.3545,-60.216 15.3536,-14.0345 34.5686,-23.8859 54.9261,-28.1598 7.6341,-1.6028 15.4354,-2.4232 23.2453,-2.4701 z m 30.7214,141.6852 a 4.6875,4.6875 0 0 0 -3.3764,1.2121 c -7.535,6.8489 -16.4052,12.2564 -25.9443,15.8185 -9.4697,3.5363 -19.6315,5.2671 -29.7381,5.0629 a 4.6875,4.6875 0 0 0 -4.7809,4.5923 4.6875,4.6875 0 0 0 4.5923,4.7808 c 11.3,0.2282 22.6198,-1.6984 33.208,-5.6524 10.6657,-3.9828 20.5441,-10.0063 28.9691,-17.6642 a 4.6875,4.6875 0 0 0 0.3149,-6.6211 4.6875,4.6875 0 0 0 -3.2446,-1.5289 z" id="path10922" style="color:#000000;fill:#fba021;fill-opacity:1;stroke-linecap:round;stroke-linejoin:round;-inkscape-stroke:none"/>

</g>

</svg>