<?xml version="1.0" ?>

<!-- Uploaded to: SVG Repo, www.svgrepo.com, Generator: SVG Repo Mixer Tools -->
<svg width="800px" height="800px" viewBox="0 0 281.25 281.25" id="svg2" version="1.1" xml:space="preserve" xmlns="http://www.w3.org/2000/svg" xmlns:cc="http://creativecommons.org/ns#" xmlns:dc="http://purl.org/dc/elements/1.1/" xmlns:rdf="http://www.w3.org/1999/02/22-rdf-syntax-ns#" xmlns:svg="http://www.w3.org/2000/svg">

<defs id="defs4"/>

<g id="layer1" transform="translate(6693.6064,-3399.5356)">

<path d="m -6569.2339,3427.6771 c -0.5812,-0.01 -1.1625,-0.01 -1.7431,0.01 -6.8132,0.1727 -13.5527,2.0543 -19.4751,5.4895 -42.8069,15.354 -73.407,56.3118 -73.407,104.3427 0,61.1517 49.6727,110.8245 110.8246,110.8245 61.1517,0 110.8264,-49.6728 110.8264,-110.8245 0,-44.4251 -26.182,-82.801 -63.9825,-100.4572 a 4.6875,4.6875 0 0 0 -0.1685,-0.084 c -0.036,-0.017 -0.07,-0.038 -0.1062,-0.055 a 4.6875,4.6875 0 0 0 -0.01,0 4.6875,4.6875 0 0 0 -0.1501,-0.071 c -6.2567,-2.619 -12.9973,-4.0294 -19.7791,-4.1437 -6.5751,-0.1108 -13.1439,1.0025 -19.3139,3.2593 -5.29,-4.2213 -11.6809,-6.8726 -18.2959,-7.8552 -1.7321,-0.2573 -3.4767,-0.3998 -5.2204,-0.4303 z m -0.1574,9.3786 c 1.3406,0.021 2.6785,0.1298 3.999,0.326 5.801,0.8617 11.3787,3.4473 15.5273,7.3883 4.1303,3.9237 6.9224,9.3509 7.4891,14.8791 0.4069,3.9705 -0.3004,8.1089 -2.0032,11.7188 -1.7028,3.6099 -4.4463,6.7865 -7.7692,8.9978 a 4.6875,4.6875 0 0 0 -0.084,0.077 4.6875,4.6875 0 0 0 -0.9577,0.8807 4.6875,4.6875 0 0 0 -0.038,0.039 4.6875,4.6875 0 0 0 -0.01,0.01 4.6875,4.6875 0 0 0 -0.3314,0.5914 4.6875,4.6875 0 0 0 -0.3827,0.6848 4.6875,4.6875 0 0 0 -0.1923,0.9631 4.6875,4.6875 0 0 0 -0.093,0.4688 4.6875,4.6875 0 0 0 0.1026,0.8899 4.6875,4.6875 0 0 0 0.07,0.5713 4.6875,4.6875 0 0 0 0.3039,0.6628 4.6875,4.6875 0 0 0 0.304,0.6647 4.6875,4.6875 0 0 0 0,0.01 4.6875,4.6875 0 0 0 0.7965,0.8642 4.6875,4.6875 0 0 0 0.1941,0.2088 4.6875,4.6875 0 0 0 0.01,0.01 c 7.2191,5.6828 12.6075,13.7954 15.0439,22.6538 1.8624,6.7712 2.036,14.0433 0.531,20.9107 -4.8747,1.672 -10.6344,1.265 -15.1245,-1.1755 -3.767,-2.0475 -7.5662,-6.283 -13.5351,-9.1132 -4.8511,-2.3002 -9.8565,-2.8304 -14.3116,-3.2117 -4.4389,-0.3801 -8.4745,-0.6516 -11.8487,-1.7468 -4.7711,-1.5486 -9.0073,-5.0982 -11.5064,-9.4977 4.2882,-4.9964 8.7539,-9.8401 13.3887,-14.5166 4.9449,-4.9892 10.0804,-9.7912 15.3919,-14.3884 a 4.6875,4.6875 0 0 0 0.4779,-6.6101 4.6875,4.6875 0 0 0 -3.208,-1.6077 4.6875,4.6875 0 0 0 -3.404,1.1316 c -5.4921,4.7534 -10.8024,9.7147 -15.9155,14.8737 -4.775,4.8177 -9.3775,9.8079 -13.797,14.9542 -2.9206,-0.8424 -5.9256,-1.3682 -8.952,-1.5656 -4.1393,-0.2699 -8.3173,0.067 -12.3743,1.0218 -7.1947,1.6935 -13.8567,5.3064 -19.2224,10.3582 8.8362,-31.9804 32.9189,-57.599 63.9258,-68.573 a 4.6875,4.6875 0 0 0 0.6555,-0.3186 4.6875,4.6875 0 0 0 0.1794,-0.071 c 4.9701,-2.9601 10.855,-4.4941 16.6645,-4.4037 z m 41.6638,5.0171 c 0.3894,0 0.779,0 1.1682,0 5.5416,0.093 11.0826,1.2487 16.2012,3.3746 29.0224,13.4773 50.5549,40.2794 56.8414,72.5702 -4.7395,-5.2 -10.4412,-9.5234 -16.7981,-12.6306 -6.4836,-3.1691 -13.5552,-5.0214 -20.7275,-5.528 -0.068,-2.5083 -0.5942,-5 -1.5711,-7.3425 -2.4468,-5.8675 -7.5248,-10.3022 -13.6688,-11.9348 a 4.6875,4.6875 0 0 0 -5.733,3.327 4.6875,4.6875 0 0 0 3.3252,5.7349 c 3.2001,0.8504 6.1487,3.4242 7.4231,6.4801 0.4999,1.1988 0.7815,2.518 0.8368,3.8434 -1.2426,0.121 -2.4835,0.2745 -3.7171,0.4797 -8.5349,1.4201 -16.672,4.8495 -23.6664,9.8969 -0.1703,-0.746 -0.3516,-1.4899 -0.5548,-2.2284 -2.4696,-8.9793 -7.3428,-17.2064 -13.9636,-23.7195 2.6473,-2.6032 4.8389,-5.658 6.4307,-9.0326 2.4438,-5.1808 3.435,-10.9751 2.8509,-16.6736 -0.5612,-5.4759 -2.557,-10.6645 -5.603,-15.1318 3.5631,-0.9451 7.2459,-1.4516 10.9259,-1.4887 z m -94.5282,66.2641 c 3.4081,-0.026 6.8248,0.478 10.0671,1.4868 3.5115,7.2365 9.9108,12.8667 17.6001,15.3625 4.9166,1.5958 9.6959,1.8082 13.9417,2.1717 4.2295,0.362 8.0694,0.9058 11.0943,2.3401 2.5506,1.2093 5.1043,3.4865 8.2691,5.7897 -6.6369,8.1475 -12.0212,17.3027 -15.8771,27.0832 -2.0191,5.1215 -3.5954,10.3999 -4.7443,15.7672 -5.0872,-5.3908 -10.4769,-10.4953 -16.1425,-15.2747 -5.9995,-5.0611 -12.3035,-9.7638 -18.8672,-14.068 a 4.6875,4.6875 0 0 0 -3.523,-0.6665 4.6875,4.6875 0 0 0 -2.9681,2.016 4.6875,4.6875 0 0 0 1.3513,6.4911 c 6.2489,4.0978 12.251,8.5722 17.9627,13.3905 7.2845,6.1452 14.0945,12.8542 20.354,20.0409 -1.4459,15.4057 0.5559,31.1259 5.96,45.6537 -44.0313,-11.0134 -76.6026,-50.7395 -76.701,-98.1903 0.6731,-6.6513 3.4814,-13.1519 7.8717,-18.1915 4.4394,-5.0957 10.5804,-8.7989 17.1588,-10.3473 2.3477,-0.5526 4.7673,-0.8368 7.1924,-0.8551 z m 126.8335,0.747 c 7.2346,-0.055 14.5097,1.5625 20.9894,4.7297 10.2286,4.9996 18.575,14.0091 22.8277,24.5745 -0.4696,55.6806 -45.6367,100.578 -101.4294,100.578 -4.6719,0 -9.2592,-0.3407 -13.7622,-0.9503 -1.0858,-2.4272 -2.0609,-4.9034 -2.9261,-7.4194 19.0474,-13.5057 36.9281,-28.6532 53.3478,-45.2545 11.006,-11.1278 21.3629,-22.8975 30.998,-35.2313 a 4.6875,4.6875 0 0 0 -0.8094,-6.579 4.6875,4.6875 0 0 0 -3.457,-0.9595 4.6875,4.6875 0 0 0 -3.122,1.767 c -9.4102,12.0461 -19.5254,23.5428 -30.2746,34.411 -0.129,0.1304 -0.2627,0.2561 -0.3919,0.3863 -0.4922,-2.4959 -1.3137,-4.9306 -2.4646,-7.2253 -1.1683,-2.3296 -2.6546,-4.4911 -4.411,-6.416 a 4.6875,4.6875 0 0 0 -3.2483,-1.5235 4.6875,4.6875 0 0 0 -3.3746,1.2195 4.6875,4.6875 0 0 0 -0.3021,6.6211 c 1.1741,1.2867 2.1745,2.7425 2.9553,4.2993 1.8114,3.6119 2.4201,7.9185 1.7139,11.911 -12.5526,11.8593 -25.8821,22.8943 -39.8841,33.0011 -4.1265,-18.1933 -2.8206,-37.6926 4.0082,-55.014 3.6967,-9.3765 8.9554,-18.1446 15.4578,-25.849 7.1402,2.6733 15.2302,2.3577 22.1484,-1.0144 a 4.6875,4.6875 0 0 0 0.8368,-0.531 4.6875,4.6875 0 0 0 0.051,-0.039 4.6875,4.6875 0 0 0 0.9393,-1.029 4.6875,4.6875 0 0 0 0.055,-0.086 4.6875,4.6875 0 0 0 0.5823,-1.2854 c 1.3293,-4.8329 1.9507,-9.8404 1.875,-14.837 6.6148,-6.0411 15.0517,-10.1692 23.8806,-11.6382 2.3715,-0.3946 4.7791,-0.5986 7.1906,-0.6171 z" id="path2317" style="color:#000000;fill:#2aff2a;fill-opacity:1;stroke-linecap:round;stroke-linejoin:round;-inkscape-stroke:none"/>

</g>

</svg>