<?xml version="1.0" ?>

<!-- Uploaded to: SVG Repo, www.svgrepo.com, Generator: SVG Repo Mixer Tools -->
<svg width="800px" height="800px" viewBox="0 0 281.25 281.25" id="svg2" version="1.1" xml:space="preserve" xmlns="http://www.w3.org/2000/svg" xmlns:cc="http://creativecommons.org/ns#" xmlns:dc="http://purl.org/dc/elements/1.1/" xmlns:rdf="http://www.w3.org/1999/02/22-rdf-syntax-ns#" xmlns:svg="http://www.w3.org/2000/svg">

<defs id="defs4"/>

<g id="layer1" transform="translate(6111.1064,-3697.2496)">

<g id="g22421" transform="translate(-2261.7519,-367.07341)">

<path d="m -3708.7779,4144.2094 c -14.1031,0.1185 -28.1333,4.4324 -39.7632,12.5079 -11.637,8.0802 -20.6625,19.8212 -25.2447,33.2849 -3.9473,11.5984 -4.5014,24.0054 -2.7796,35.8539 1.7194,11.8318 5.6482,23.102 10.5359,33.7006 5.7767,12.5265 13.1545,24.6529 23.15,34.6875 10.0192,10.0582 22.7417,17.8921 37.0185,20.7165 6.5045,1.2869 13.5828,1.5672 20.4126,-0.5658 3.4209,-1.0683 6.7193,-2.7369 9.6038,-5.0812 2.8919,-2.3504 5.3174,-5.3488 6.8958,-8.8696 2.5874,-5.7716 2.5098,-11.768 2.2119,-16.9922 -0.296,-5.1904 -0.7574,-9.8702 0.011,-13.8757 0.8825,-4.6141 3.4905,-9.172 6.7346,-13.5791 3.2566,-4.424 7.2135,-8.8347 10.6037,-14.1339 6.3367,-9.9054 9.5768,-21.6223 9.4116,-33.3344 -0.1651,-11.7062 -3.7091,-23.2388 -9.9683,-33.078 -6.2563,-9.8348 -15.1361,-17.8672 -25.4205,-23.2544 -10.28,-5.385 -21.8511,-8.0842 -33.4094,-7.987 z m 0.079,9.375 c 10.0406,-0.084 20.1287,2.28 28.982,6.9177 8.8492,4.6355 16.5218,11.5923 21.8591,19.9823 5.3342,8.3853 8.3657,18.2848 8.5052,28.1763 0.1394,9.8854 -2.6307,19.861 -7.9339,28.1506 -2.8506,4.4558 -6.649,8.7263 -10.2576,13.6285 -3.6211,4.9191 -7.0988,10.6146 -8.3917,17.3749 -1.121,5.86 -0.4352,11.3323 -0.1593,16.1701 0.2739,4.804 0.1134,9.2293 -1.4081,12.6233 -0.917,2.0455 -2.4116,3.9338 -4.2535,5.4309 -1.8495,1.503 -4.0856,2.6556 -6.4875,3.4057 -4.8159,1.504 -10.3327,1.4015 -15.7965,0.3205 -12.0622,-2.3863 -23.268,-9.1725 -32.1972,-18.1366 -8.9528,-8.9879 -15.8098,-20.1444 -21.2769,-31.9996 -4.6279,-10.0352 -8.2241,-20.4681 -9.7723,-31.1224 -1.5459,-10.6377 -0.9967,-21.5708 2.3767,-31.4831 3.9037,-11.4699 11.7173,-21.6633 21.7145,-28.6048 10.0039,-6.9465 22.2629,-10.7315 34.497,-10.8343 z m -1.7047,16.1865 c -9.0877,0.1908 -17.9286,3.9317 -24.3768,10.3747 -7.0092,7.0036 -10.8211,16.8371 -10.3656,26.7353 a 4.6875,4.6875 0 0 0 4.8981,4.4659 4.6875,4.6875 0 0 0 4.4677,-4.8981 c -0.3296,-7.1619 2.5547,-14.6015 7.6264,-19.6691 4.9796,-4.9757 12.2395,-7.8493 19.2755,-7.6282 a 4.6875,4.6875 0 0 0 4.8321,-4.5374 4.6875,4.6875 0 0 0 -4.5373,-4.8321 c -0.6074,-0.019 -1.2142,-0.024 -1.8201,-0.011 z" id="path3966" style="color:#000000;fill:#2aff2a;fill-opacity:1;stroke-linecap:round;stroke-linejoin:round;-inkscape-stroke:none"/>

<path d="m -3736.6081,4093.9359 c -0.9841,-0.011 -1.9671,0.016 -2.948,0.077 v 0 c -5.8856,0.3664 -11.6726,2.0118 -16.875,4.834 a 4.6875,4.6875 0 0 0 -0.01,0.01 4.6875,4.6875 0 0 0 -0.5273,0.4047 4.6875,4.6875 0 0 0 -0.6317,0.487 4.6875,4.6875 0 0 0 -0.4669,0.6775 4.6875,4.6875 0 0 0 -0.3626,0.5329 4.6875,4.6875 0 0 0 -0.2984,1.0107 4.6875,4.6875 0 0 0 -0.1154,0.3919 4.6875,4.6875 0 0 0 0.02,0.8331 4.6875,4.6875 0 0 0 0.02,0.6372 4.6875,4.6875 0 0 0 0,0.01 c 1.5315,8.1209 5.6388,15.6464 11.64,21.3282 6.0011,5.6817 13.7418,9.3715 21.9342,10.4571 4.8876,0.6477 9.8565,0.3504 14.6136,-0.8203 -1.0686,3.1174 -1.8526,6.3325 -2.34,9.5984 1.3906,-0.093 2.7823,-0.1787 4.1766,-0.1904 v 0 c 1.7769,-0.015 3.5519,0.061 5.3247,0.1776 1.4599,-8.0084 5.1347,-15.6631 10.5267,-21.7346 6.6598,-7.4989 16.0303,-12.6887 25.9204,-14.3537 a 4.6875,4.6875 0 0 0 3.8434,-5.3998 4.6875,4.6875 0 0 0 -5.3998,-3.8433 c -12.0553,2.0294 -23.2557,8.2289 -31.3733,17.3693 -0.1752,0.1974 -0.3405,0.4026 -0.5127,0.6025 -2.6865,-5.6016 -6.641,-10.5776 -11.5558,-14.4342 -6.2083,-4.8715 -13.7924,-7.8531 -21.6558,-8.5163 -0.9829,-0.083 -1.9676,-0.1304 -2.9517,-0.141 z m -0.095,9.3769 c 0.7549,0.01 1.5089,0.041 2.2595,0.1043 6.0046,0.5064 11.9147,2.8319 16.6553,6.5515 4.5467,3.5678 8.085,8.5071 10.0781,13.9563 -5.068,2.2595 -10.8106,3.1281 -16.2872,2.4024 -6.1912,-0.8204 -12.1843,-3.6787 -16.7194,-7.9724 -3.6699,-3.4747 -6.4511,-7.9537 -7.9925,-12.7881 3.8008,-1.5161 7.9191,-2.2934 12.0062,-2.254 z" id="path3974" style="color:#000000;fill:#333333;fill-opacity:1;stroke-linecap:round;stroke-linejoin:round;-inkscape-stroke:none"/>

</g>

</g>

</svg>