<?xml version="1.0" ?>

<!-- Uploaded to: SVG Repo, www.svgrepo.com, Generator: SVG Repo Mixer Tools -->
<svg width="800px" height="800px" viewBox="0 0 281.25 281.25" id="svg2" version="1.1" xml:space="preserve" xmlns="http://www.w3.org/2000/svg" xmlns:cc="http://creativecommons.org/ns#" xmlns:dc="http://purl.org/dc/elements/1.1/" xmlns:rdf="http://www.w3.org/1999/02/22-rdf-syntax-ns#" xmlns:svg="http://www.w3.org/2000/svg">

<defs id="defs4"/>

<g id="layer1" transform="translate(6984.8564,-3106.6404)">

<g id="g15322" transform="translate(-2253.3584,-327.71665)">

<path d="m -4590.8739,3469.1782 c -58.378,0 -105.8019,47.4258 -105.802,105.8039 0,58.3781 47.4239,105.8038 105.802,105.8038 58.3781,-10e-5 105.8039,-47.4258 105.8039,-105.8038 -1e-4,-58.378 -47.4259,-105.8038 -105.8039,-105.8039 z m 0,9.375 c 53.3114,1e-4 96.4289,43.1175 96.4289,96.4289 0,53.3114 -43.1175,96.4287 -96.4289,96.4288 -53.3115,0 -96.427,-43.1174 -96.427,-96.4288 1e-4,-53.3115 43.1156,-96.4289 96.427,-96.4289 z" id="path1109" style="color:#000000;fill:#333333;fill-opacity:1;stroke-linecap:round;stroke-linejoin:round;-inkscape-stroke:none"/>

<path d="m -4588.0028,3500.1908 c -1.8517,-0.019 -3.7052,0.054 -5.5554,0.2179 -11.009,0.9771 -21.6363,5.1771 -30.3534,11.9623 -14.3514,3.2875 -27.0273,12.6608 -34.3176,25.47 -6.3239,11.1112 -8.4081,24.4061 -5.8484,36.9195 -2.4022,8.1659 -2.6634,16.9044 -0.7342,25.2008 2.0252,8.7098 6.4264,16.7941 12.6452,23.2196 7.5184,7.7684 17.548,12.909 28.2257,14.5203 8.9711,8.1616 20.7048,13.0761 32.8308,13.6871 13.9568,0.7033 27.9281,-4.3623 38.2306,-13.7787 13.0968,-2.5975 24.9527,-10.3706 32.5049,-21.4013 8.1971,-11.9728 10.9427,-27.2721 7.4963,-41.3507 2.6568,-14.0055 -0.4298,-28.8628 -8.5052,-40.6256 -7.4392,-10.8359 -18.8454,-18.6947 -31.5967,-21.839 -9.9652,-7.7616 -22.4211,-12.0763 -35.0226,-12.2022 z m -0.1007,9.3787 c 9.4977,0.1093 19.0231,3.0952 26.8854,8.4192 l -27.2388,47.5616 -27.2461,-47.569 c 6.7921,-4.6171 14.8054,-7.5111 22.9725,-8.236 1.5368,-0.1365 3.0811,-0.1936 4.627,-0.1758 z m -36.0351,12.5427 27.5958,48.1824 h -58.8007 c -1.325,-9.4892 0.533,-19.5058 5.2625,-27.8156 5.5416,-9.7367 15.1683,-17.2245 25.9424,-20.3668 z m 71.3342,0.053 c 9.5022,2.9489 18.0729,9.1856 23.6938,17.373 6.0696,8.8409 8.7468,20.0885 7.4616,30.7563 h -58.7201 z m -102.8705,57.5043 h 59.1321 l -27.7551,48.457 c -7.9611,-1.5831 -15.4967,-5.6432 -21.1304,-11.4642 -5.0162,-5.1829 -8.6204,-11.7997 -10.2539,-18.8251 -1.3796,-5.9329 -1.3631,-12.2208 0.01,-18.1677 z m 75.3058,0 h 58.927 c 1.8725,10.7097 -0.5394,22.2907 -6.6687,31.2433 -5.7286,8.3672 -14.7463,14.5652 -24.5966,17.0544 z m -8.0878,4.7461 27.4128,47.8601 c -8.2223,6.6623 -19.0436,10.2819 -29.5917,9.7503 -9.1171,-0.4594 -18.1408,-3.9759 -25.2411,-9.743 z" id="path1111" style="color:#000000;fill:#2aff2a;fill-opacity:1;stroke-linecap:round;stroke-linejoin:round;-inkscape-stroke:none"/>

</g>

</g>

</svg>