<?xml version="1.0" ?>

<!-- Uploaded to: SVG Repo, www.svgrepo.com, Generator: SVG Repo Mixer Tools -->
<svg width="800px" height="800px" viewBox="0 0 281.25 281.25" id="svg2" version="1.1" xml:space="preserve" xmlns="http://www.w3.org/2000/svg" xmlns:cc="http://creativecommons.org/ns#" xmlns:dc="http://purl.org/dc/elements/1.1/" xmlns:rdf="http://www.w3.org/1999/02/22-rdf-syntax-ns#" xmlns:svg="http://www.w3.org/2000/svg">

<defs id="defs4"/>

<g id="layer1" transform="translate(6402.3564,-3697.2496)">

<g id="g37135" transform="translate(-74.106771,-346.02129)">

<path d="m -6188.4642,4114.7419 c -11.5301,0.068 -22.8224,4.6674 -31.1206,12.6727 -1.6274,1.57 -3.1234,3.2628 -4.4879,5.0519 -4.4388,-2.4303 -9.3588,-3.9446 -14.4159,-4.4018 -1.6677,-0.1508 -3.3412,-0.1872 -5.008,-0.1099 -5.0003,0.2319 -9.9389,1.4815 -14.4561,3.6786 -10.6084,5.16 -17.9807,15.0572 -21.4911,25.8691 -3.4992,10.7777 -3.3127,22.09 -1.8347,32.7045 1.4752,10.5944 4.1876,20.6488 6.037,30.5402 1.6163,8.6445 2.6711,17.6913 4.8193,26.8084 2.1519,9.1321 5.4699,18.4304 11.4423,26.3764 3.854,5.1275 8.7646,9.5761 14.5861,12.6526 5.8363,3.0844 12.5165,4.7194 19.2701,4.2737 5.8209,-0.3841 11.4501,-2.3374 16.2835,-5.5573 6.275,3.2127 13.2799,4.9756 20.3778,5.0171 7.5171,0.044 14.9503,-1.8496 21.5424,-5.3558 4.9432,3.4259 10.7676,5.4984 16.7926,5.896 6.7536,0.4457 13.4337,-1.1893 19.27,-4.2737 5.8215,-3.0765 10.7303,-7.5251 14.5844,-12.6526 5.9724,-7.946 9.294,-17.2443 11.4459,-26.3764 2.1482,-9.1171 3.2012,-18.1639 4.8175,-26.8084 1.8494,-9.8914 4.5637,-19.9458 6.0388,-30.5402 1.4781,-10.6145 1.6645,-21.9268 -1.8347,-32.7045 -3.5104,-10.8119 -10.8864,-20.7091 -21.4948,-25.8691 -4.5172,-2.1971 -9.4539,-3.4467 -14.4543,-3.6786 -1.6667,-0.077 -3.3402,-0.041 -5.0079,0.1099 -5.3664,0.4852 -10.572,2.1746 -15.2179,4.8724 -1.509,-2.0324 -3.1807,-3.9493 -5.0226,-5.7056 -8.4094,-8.0181 -19.8398,-12.5575 -31.4594,-12.4896 z m 0.057,9.375 c 9.1105,-0.054 18.3413,3.6114 24.9353,9.8987 6.594,6.2874 10.6938,15.3342 11.0742,24.4373 a 4.6875,4.6875 0 0 0 4.8797,4.4879 4.6875,4.6875 0 0 0 4.488,-4.878 c -0.2474,-5.9194 -1.694,-11.7297 -4.162,-17.069 3.4448,-1.9792 7.3311,-3.2361 11.2738,-3.5926 4.9407,-0.4467 10.0574,0.4907 14.5184,2.6605 7.851,3.8188 13.8487,11.6218 16.6773,20.3339 2.8665,8.8291 2.8316,18.7158 1.4666,28.5187 -1.3678,9.823 -4.0299,19.7399 -5.9692,30.1117 -1.6947,9.0643 -2.7424,17.9614 -4.726,26.38 -1.9801,8.4032 -4.9624,16.4366 -9.8144,22.8918 -3.1169,4.1469 -7.0353,7.6549 -11.4716,9.9994 -4.4214,2.3366 -9.4478,3.5245 -14.2712,3.2062 -3.0655,-0.2023 -6.1136,-1.0416 -8.9026,-2.395 0.4774,-0.4175 0.9501,-0.8397 1.4099,-1.2781 8.4099,-8.0188 13.4876,-19.2212 13.9728,-30.8313 a 4.6875,4.6875 0 0 0 -4.4879,-4.8779 4.6875,4.6875 0 0 0 -4.8798,4.4861 c -0.3804,9.1031 -4.4802,18.1499 -11.0742,24.4372 -6.594,6.2873 -15.8248,9.9523 -24.9353,9.8987 -5.6292,-0.033 -11.2859,-1.4851 -16.3257,-4.0906 a 4.6875,4.6875 0 0 0 -0.3955,-0.5548 4.6875,4.6875 0 0 0 -3.0011,-1.4465 c -1.766,-1.1705 -3.4291,-2.4884 -4.9457,-3.9514 -6.5077,-6.2781 -10.5465,-15.2581 -10.924,-24.2926 a 4.6875,4.6875 0 0 0 -4.878,-4.4861 v 0 a 4.6875,4.6875 0 0 0 -4.4879,4.8779 c 0.4815,11.5209 5.4818,22.6424 13.7805,30.6482 0.6466,0.6238 1.3178,1.2199 1.9995,1.8018 -2.5835,1.1488 -5.3605,1.87 -8.1555,2.0544 -4.8233,0.3183 -9.8498,-0.8696 -14.2713,-3.2062 -4.4362,-2.3445 -8.3564,-5.8525 -11.4733,-9.9994 -4.852,-6.4552 -7.8326,-14.4886 -9.8127,-22.8918 -1.9836,-8.4186 -3.033,-17.3157 -4.7277,-26.38 -1.9393,-10.3718 -4.5997,-20.2887 -5.9675,-30.1117 -1.365,-9.8029 -1.4017,-19.6896 1.4649,-28.5187 2.8286,-8.7121 8.8262,-16.5151 16.6772,-20.3339 4.4611,-2.1698 9.5778,-3.1072 14.5185,-2.6605 3.6001,0.3255 7.1563,1.3996 10.3711,3.089 -2.6125,5.4775 -4.1485,11.4665 -4.4037,17.5726 a 4.6875,4.6875 0 0 0 4.4879,4.878 4.6875,4.6875 0 0 0 4.8779,-4.4879 c 0.3776,-9.0345 4.4164,-18.0126 10.9241,-24.2908 6.5079,-6.278 15.6257,-9.9924 24.668,-10.0452 z" id="path4261" style="color:#000000;fill:#2aff2a;fill-opacity:1;stroke-linecap:round;stroke-linejoin:round;-inkscape-stroke:none"/>

<g id="g23276" style="fill:#333333;fill-opacity:1" transform="translate(-2196.5027,-24.258128)">

<path d="m -4004.2424,4101.1192 a 4.6879687,4.6879687 0 0 0 -4.6875,4.6875 v 36.6449 c 3.013,-1.2437 6.1608,-2.1402 9.375,-2.7155 v -29.2419 h 15.7214 v 29.2291 c 3.2168,0.576 6.3591,1.4997 9.375,2.7447 v -36.6613 a 4.6879687,4.6879687 0 0 0 -4.6875,-4.6875 z" id="rect4317" style="color:#000000;fill:#333333;fill-opacity:1;stroke-linecap:round;stroke-linejoin:round;-inkscape-stroke:none"/>

</g>

</g>

</g>

</svg>