<?xml version="1.0" ?>

<!-- Uploaded to: SVG Repo, www.svgrepo.com, Generator: SVG Repo Mixer Tools -->
<svg width="800px" height="800px" viewBox="0 0 281.25 281.25" id="svg2" version="1.1" xml:space="preserve" xmlns="http://www.w3.org/2000/svg" xmlns:cc="http://creativecommons.org/ns#" xmlns:dc="http://purl.org/dc/elements/1.1/" xmlns:rdf="http://www.w3.org/1999/02/22-rdf-syntax-ns#" xmlns:svg="http://www.w3.org/2000/svg">

<defs id="defs4"/>

<g id="layer1" transform="translate(6984.8564,-4296.9987)">

<g id="g33818" transform="translate(-2252.067,-391.97162)">

<path d="m -4592.1135,4739.5585 c -33.8277,6e-4 -61.9412,24.1165 -61.9409,54.5764 a 4.6879687,4.6879687 0 0 0 0,0.026 c 0.03,5.6867 1.0892,11.3102 3.0725,16.6736 -30.6334,3.0425 -54.974,25.8805 -54.9737,54.2212 9e-4,30.4597 28.1149,54.5732 61.9427,54.5728 a 4.6879687,4.6879687 0 0 0 0.01,0 c 20.9869,-0.038 40.4224,-9.3636 51.7877,-24.787 11.1197,14.9878 30.344,24.7906 51.9012,24.7906 33.8281,-1e-4 61.9409,-24.1165 61.9409,-54.5764 0,-28.3101 -24.2877,-51.1286 -54.8748,-54.2102 1.9858,-5.3675 3.0467,-10.9958 3.0761,-16.6864 4e-4,-30.4599 -28.1113,-54.5759 -61.939,-54.5764 z m 0,9.375 v 0 c 29.4082,5e-4 52.557,20.5488 52.5641,45.1886 -0.031,5.6282 -1.3568,11.1772 -3.7811,16.4227 -20.2947,0.8646 -38.2314,10.4076 -48.8361,24.6552 -10.826,-14.644 -28.9347,-23.743 -48.7189,-24.6222 -2.4343,-5.2552 -3.7646,-10.8155 -3.7957,-16.4557 0.01,-24.6398 23.1577,-45.188 52.5659,-45.1886 z m -51.8976,70.9204 c 0.027,0 0.053,0 0.081,0 a 4.6879687,4.6879687 0 0 0 0.017,0 c 1.2754,0 2.5418,0.045 3.7994,0.1263 0.2398,0.016 0.475,0.047 0.7141,0.066 0.9781,0.075 1.954,0.1611 2.9187,0.2819 0.6165,0.078 1.2225,0.1873 1.8329,0.2839 0.5796,0.091 1.1621,0.1709 1.7358,0.2783 0.8238,0.1554 1.6359,0.3403 2.4463,0.5291 0.3301,0.076 0.6646,0.1417 0.9924,0.2234 1.0449,0.2626 2.077,0.5548 3.0964,0.8716 0.068,0.021 0.1385,0.039 0.2069,0.06 12.2187,3.8475 22.4842,11.5425 28.6102,21.5992 -2.9962,6.3722 -4.6706,13.3666 -4.6912,20.7385 -3e-4,0.038 0,0.076 0,0.1135 a 4.6879687,4.6879687 0 0 0 0,0.046 c 2e-4,0.038 0,0.077 0,0.1153 0.02,7.3362 1.6802,14.2978 4.6491,20.6452 -8.9016,14.696 -26.6445,24.3791 -46.4081,24.4171 -29.4131,4e-4 -52.5669,-20.5546 -52.5677,-45.1996 -3e-4,-24.6457 23.1539,-45.2018 52.5677,-45.2014 z m 103.6981,0 h 0.01 c 29.4098,0 52.5585,20.5583 52.5585,45.2014 0,24.6452 -23.1525,45.2013 -52.5659,45.2014 -21.068,0 -38.9213,-10.5496 -47.3584,-25.5908 a 4.6879687,4.6879687 0 0 0 -0.3644,-0.8899 c -3.1701,-5.8975 -4.806,-12.269 -4.8431,-18.7189 0.038,-6.481 1.692,-12.8826 4.8926,-18.8031 a 4.6879687,4.6879687 0 0 0 0.011,-0.024 c 0,0 0,0 0,-0.01 7.9075,-14.8156 24.6809,-24.9638 43.7311,-26.2336 0.058,0 0.1158,-0.01 0.174,-0.013 1.2428,-0.079 2.4935,-0.122 3.7536,-0.1245 z" id="path10338" style="color:#000000;fill:#355fd1;fill-opacity:1;stroke-linecap:round;stroke-linejoin:round;-inkscape-stroke:none"/>

<path d="m -4592.1116,4770.2708 a 4.6875,4.6875 0 0 0 -4.6875,4.6875 v 14.4891 h -14.4892 a 4.6875,4.6875 0 0 0 -4.6875,4.6875 4.6875,4.6875 0 0 0 4.6875,4.6875 h 14.4892 v 14.491 a 4.6875,4.6875 0 0 0 4.6875,4.6875 4.6875,4.6875 0 0 0 4.6875,-4.6875 v -14.491 h 14.4891 a 4.6875,4.6875 0 0 0 4.6875,-4.6875 4.6875,4.6875 0 0 0 -4.6875,-4.6875 h -14.4891 v -14.4891 a 4.6875,4.6875 0 0 0 -4.6875,-4.6875 z m -51.9013,70.9186 a 4.6875,4.6875 0 0 0 -4.6875,4.6875 v 14.4909 h -14.491 a 4.6875,4.6875 0 0 0 -4.6875,4.6875 4.6875,4.6875 0 0 0 4.6875,4.6875 h 14.491 v 14.4892 a 4.6875,4.6875 0 0 0 4.6875,4.6875 4.6875,4.6875 0 0 0 4.6875,-4.6875 v -14.4892 h 14.4891 a 4.6875,4.6875 0 0 0 4.6875,-4.6875 4.6875,4.6875 0 0 0 -4.6875,-4.6875 h -14.4891 v -14.4909 a 4.6875,4.6875 0 0 0 -4.6875,-4.6875 z m 103.6981,0 a 4.6875,4.6875 0 0 0 -4.6875,4.6875 v 14.4909 h -14.4891 a 4.6875,4.6875 0 0 0 -4.6875,4.6875 4.6875,4.6875 0 0 0 4.6875,4.6875 h 14.4891 v 14.4892 a 4.6875,4.6875 0 0 0 4.6875,4.6875 4.6875,4.6875 0 0 0 4.6875,-4.6875 v -14.4892 h 14.4892 a 4.6875,4.6875 0 0 0 4.6875,-4.6875 4.6875,4.6875 0 0 0 -4.6875,-4.6875 h -14.4892 v -14.4909 a 4.6875,4.6875 0 0 0 -4.6875,-4.6875 z" id="path10340" style="color:#000000;fill:#333333;fill-opacity:1;stroke-linecap:round;stroke-linejoin:round;-inkscape-stroke:none"/>

</g>

</g>

</svg>