<?xml version="1.0" ?>

<!-- Uploaded to: SVG Repo, www.svgrepo.com, Generator: SVG Repo Mixer Tools -->
<svg width="800px" height="800px" viewBox="0 0 281.25 281.25" id="svg2" version="1.1" xml:space="preserve" xmlns="http://www.w3.org/2000/svg" xmlns:cc="http://creativecommons.org/ns#" xmlns:dc="http://purl.org/dc/elements/1.1/" xmlns:rdf="http://www.w3.org/1999/02/22-rdf-syntax-ns#" xmlns:svg="http://www.w3.org/2000/svg">

<defs id="defs4"/>

<g id="layer1" transform="translate(7276.1064,-3106.6404)">

<g id="g14907" transform="translate(-2246.4211,-331.45623)">

<path d="m -4820.3068,3565.3672 c -25.6047,2.4718 -50.4988,11.4266 -71.8451,25.7703 -9.9446,-6.7403 -20.7211,-12.2466 -32.016,-16.3422 -10.8378,-3.9298 -22.1394,-6.5624 -33.598,-7.8278 a 4.6875,4.6875 0 0 0 -0.716,0.033 4.6875,4.6875 0 0 0 -0.5145,0.024 4.6875,4.6875 0 0 0 -1.485,0.4834 4.6875,4.6875 0 0 0 -0.095,0.031 4.6875,4.6875 0 0 0 -0.011,0.01 4.6875,4.6875 0 0 0 -1.2653,1.084 4.6875,4.6875 0 0 0 -0.2819,0.4284 4.6875,4.6875 0 0 0 -0.5292,1.0437 4.6875,4.6875 0 0 0 -0.1538,0.5622 4.6875,4.6875 0 0 0 -0.1209,0.4449 4.6875,4.6875 0 0 0 0.033,0.7123 4.6875,4.6875 0 0 0 0.024,0.5182 4.6875,4.6875 0 0 0 0.4925,1.507 4.6875,4.6875 0 0 0 0.024,0.075 c 0,0.01 0.01,0.016 0.013,0.024 6.2676,11.1579 10.1335,23.6902 11.2408,36.4398 1.0958,12.6174 -0.6266,26.5057 2.97,40.5323 2.9272,11.4157 9.5959,22.2039 19.834,28.8171 8.6328,5.5763 19.2381,7.7111 29.3444,5.9674 8.4671,4.3675 18.3288,5.7668 27.6856,3.8855 9.9399,-1.9984 18.978,-7.6294 25.1514,-15.672 6.581,-8.5737 9.4208,-18.9764 10.8435,-28.9142 1.4184,-9.9076 1.5573,-19.5626 2.8619,-28.6779 2.2232,-15.5336 7.9005,-30.5933 16.4868,-43.7275 a 4.6875,4.6875 0 0 0 0.05,-0.09 4.6875,4.6875 0 0 0 0.1922,-0.3515 4.6875,4.6875 0 0 0 0.1447,-0.2985 4.6875,4.6875 0 0 0 0.1336,-0.3735 4.6875,4.6875 0 0 0 0.1007,-0.3296 4.6875,4.6875 0 0 0 0.07,-0.3644 4.6875,4.6875 0 0 0 0.051,-0.3662 4.6875,4.6875 0 0 0 0.011,-0.3552 4.6875,4.6875 0 0 0 -0.01,-0.3809 4.6875,4.6875 0 0 0 0,-0.1062 4.6875,4.6875 0 0 0 -0.02,-0.068 4.6875,4.6875 0 0 0 -0.4944,-1.6369 4.6875,4.6875 0 0 0 -0.033,-0.07 4.6875,4.6875 0 0 0 -1.1077,-1.355 4.6875,4.6875 0 0 0 -0.092,-0.071 4.6875,4.6875 0 0 0 -0.3534,-0.2728 4.6875,4.6875 0 0 0 -0.6152,-0.2472 4.6875,4.6875 0 0 0 -0.8423,-0.3369 4.6875,4.6875 0 0 0 -0.8917,-0.09 4.6875,4.6875 0 0 0 -0.6665,-0.068 z m -8.498,10.5542 c -6.5445,12.137 -10.9412,25.4176 -12.8961,39.0765 -1.418,9.9076 -1.5588,19.5627 -2.8638,28.678 -1.3006,9.0851 -3.8796,17.8623 -8.9996,24.5325 -4.752,6.191 -11.9098,10.651 -19.5611,12.1893 -7.6514,1.5384 -15.9772,0.1929 -22.7527,-3.6804 a 4.6875,4.6875 0 0 0 -0.028,-0.01 4.6875,4.6875 0 0 0 -0.068,-0.044 c -8.1637,-4.4201 -14.7297,-11.9714 -17.9755,-20.6689 -3.2458,-8.6976 -3.2319,-18.7013 0.04,-27.389 4.2486,-11.2802 13.7742,-20.458 24.4281,-27.9547 18.0014,-12.6667 38.9466,-21.1759 60.6756,-24.7302 z m -121.2689,1.6242 c 7.7258,1.3653 15.3364,3.3905 22.7106,6.0644 9.4915,3.4416 18.5912,7.9633 27.0904,13.4161 -9.4029,7.3927 -17.9798,16.522 -22.4066,28.2752 -4.0945,10.8711 -4.1143,23.0882 -0.053,33.9715 2.3932,6.4129 6.1686,12.2403 10.9497,17.0838 -4.0696,-0.7551 -7.9973,-2.2724 -11.4386,-4.4953 -7.8564,-5.0746 -13.4155,-13.8187 -15.8386,-23.269 -3.02,-11.7778 -1.5027,-25.0961 -2.7118,-39.0179 -0.9595,-11.0482 -3.7893,-21.9085 -8.302,-32.0288 z" id="path424" style="color:#000000;fill:#333333;fill-opacity:1;stroke-linecap:round;stroke-linejoin:round;-inkscape-stroke:none"/>

<path d="m -4887.7519,3467.0359 a 4.6875,4.6875 0 0 0 -0.4871,0.1264 4.6875,4.6875 0 0 0 -0.5035,0.037 4.6875,4.6875 0 0 0 -0.3754,0.1886 4.6875,4.6875 0 0 0 -0.4046,0.1043 c -11.6627,5.6142 -21.6761,14.4741 -28.667,25.3675 -8.4467,13.1621 -12.0783,28.3291 -14.6686,42.9071 -2.0562,11.5724 -3.5491,23.2436 -4.4788,34.9603 3.1029,0.802 6.1814,1.6991 9.2249,2.7045 0.8908,-12.0735 2.3664,-24.1047 4.4842,-36.0242 2.5183,-14.1728 6.0036,-28.0694 13.3283,-39.483 5.5886,-8.7084 13.492,-15.974 22.6245,-20.8521 6.3686,3.9601 12.0211,9.1025 16.5308,15.0897 5.0664,6.7266 8.7885,14.5954 11.7132,22.8516 6.431,18.1543 8.8844,37.7329 7.1723,56.9183 3.1725,-1.0065 6.3769,-1.9078 9.6075,-2.7099 1.2458,-19.393 -1.4518,-39.015 -7.9431,-57.3395 -3.1326,-8.8429 -7.2156,-17.5968 -13.0628,-25.3601 -5.7883,-7.6849 -13.1514,-14.1462 -21.524,-18.8855 a 4.6875,4.6875 0 0 0 -0.3937,-0.13 4.6875,4.6875 0 0 0 -0.3662,-0.2161 4.6875,4.6875 0 0 0 -0.5035,-0.071 4.6875,4.6875 0 0 0 -0.8918,-0.1245 4.6875,4.6875 0 0 0 -0.4156,-0.059 z" id="path1049" style="color:#000000;fill:#f0b210;fill-opacity:1;stroke-linecap:round;stroke-linejoin:round;-inkscape-stroke:none"/>

</g>

</g>

</svg>